<mxfile host="65bd71144e">
    <diagram name="第 1 页" id="AnMRVbrkqxffbET3McZs">
        <mxGraphModel dx="1266" dy="924" grid="1" gridSize="10" guides="1" tooltips="1" connect="1" arrows="1" fold="1" page="1" pageScale="1" pageWidth="827" pageHeight="1169" math="0" shadow="0">
            <root>
                <mxCell id="0"/>
                <mxCell id="1" parent="0"/>
                <mxCell id="jegcrzORA-ZSloYt-0iM-11" style="edgeStyle=orthogonalEdgeStyle;rounded=0;orthogonalLoop=1;jettySize=auto;html=1;" parent="1" source="jegcrzORA-ZSloYt-0iM-1" target="jegcrzORA-ZSloYt-0iM-9" edge="1">
                    <mxGeometry relative="1" as="geometry"/>
                </mxCell>
                <mxCell id="jegcrzORA-ZSloYt-0iM-12" value="&lt;font face=&quot;Noto Serif CJK SC Medium&quot; style=&quot;font-size: 14px;&quot;&gt;位姿 / 手指关节数据&lt;/font&gt;" style="edgeLabel;html=1;align=center;verticalAlign=middle;resizable=0;points=[];" parent="jegcrzORA-ZSloYt-0iM-11" vertex="1" connectable="0">
                    <mxGeometry x="-0.0125" y="-1" relative="1" as="geometry">
                        <mxPoint as="offset"/>
                    </mxGeometry>
                </mxCell>
                <mxCell id="jegcrzORA-ZSloYt-0iM-1" value="&lt;font face=&quot;Noto Serif CJK SC Medium&quot; style=&quot;font-size: 18px;&quot;&gt;传感器 / 规划模块中间层&lt;/font&gt;" style="rounded=1;whiteSpace=wrap;html=1;strokeWidth=3;fillColor=#dae8fc;strokeColor=#6c8ebf;" parent="1" vertex="1">
                    <mxGeometry x="160" y="310" width="210" height="80" as="geometry"/>
                </mxCell>
                <mxCell id="jegcrzORA-ZSloYt-0iM-3" style="edgeStyle=orthogonalEdgeStyle;rounded=0;orthogonalLoop=1;jettySize=auto;html=1;entryX=0.5;entryY=0;entryDx=0;entryDy=0;startArrow=classic;startFill=1;" parent="1" source="jegcrzORA-ZSloYt-0iM-2" target="jegcrzORA-ZSloYt-0iM-1" edge="1">
                    <mxGeometry relative="1" as="geometry"/>
                </mxCell>
                <mxCell id="jegcrzORA-ZSloYt-0iM-5" value="&lt;font face=&quot;Noto Serif CJK SC Medium&quot; style=&quot;font-size: 14px;&quot;&gt;传感器位姿&lt;/font&gt;" style="edgeLabel;html=1;align=center;verticalAlign=middle;resizable=0;points=[];" parent="jegcrzORA-ZSloYt-0iM-3" vertex="1" connectable="0">
                    <mxGeometry x="-0.1159" y="-1" relative="1" as="geometry">
                        <mxPoint as="offset"/>
                    </mxGeometry>
                </mxCell>
                <mxCell id="jegcrzORA-ZSloYt-0iM-2" value="&lt;font face=&quot;Noto Serif CJK SC Medium&quot; style=&quot;font-size: 18px;&quot;&gt;末端传感器驱动&amp;nbsp;&lt;/font&gt;" style="rounded=1;whiteSpace=wrap;html=1;strokeWidth=3;fillColor=#d5e8d4;strokeColor=#82b366;" parent="1" vertex="1">
                    <mxGeometry x="170" y="160" width="190" height="60" as="geometry"/>
                </mxCell>
                <mxCell id="jegcrzORA-ZSloYt-0iM-14" style="edgeStyle=orthogonalEdgeStyle;rounded=1;orthogonalLoop=1;jettySize=auto;html=1;entryX=0;entryY=0.5;entryDx=0;entryDy=0;strokeWidth=3;curved=0;endArrow=blockThin;endFill=1;" parent="1" source="jegcrzORA-ZSloYt-0iM-9" target="jegcrzORA-ZSloYt-0iM-13" edge="1">
                    <mxGeometry relative="1" as="geometry">
                        <Array as="points">
                            <mxPoint x="390" y="500"/>
                            <mxPoint x="390" y="565"/>
                        </Array>
                    </mxGeometry>
                </mxCell>
                <mxCell id="jegcrzORA-ZSloYt-0iM-9" value="&lt;font face=&quot;Noto Serif CJK SC Medium&quot; style=&quot;font-size: 18px;&quot;&gt;滤波模块，将平滑 6-DOF 位姿发布到 TF2 系统&lt;/font&gt;" style="rounded=1;whiteSpace=wrap;html=1;strokeWidth=3;fillColor=#fff2cc;strokeColor=#d6b656;" parent="1" vertex="1">
                    <mxGeometry x="161" y="470" width="208" height="60" as="geometry"/>
                </mxCell>
                <mxCell id="jegcrzORA-ZSloYt-0iM-34" style="edgeStyle=orthogonalEdgeStyle;rounded=1;orthogonalLoop=1;jettySize=auto;html=1;exitX=0.5;exitY=0;exitDx=0;exitDy=0;entryX=0;entryY=0.5;entryDx=0;entryDy=0;startArrow=blockThin;startFill=1;strokeWidth=3;curved=0;endArrow=blockThin;endFill=1;" parent="1" source="jegcrzORA-ZSloYt-0iM-13" target="jegcrzORA-ZSloYt-0iM-17" edge="1">
                    <mxGeometry relative="1" as="geometry"/>
                </mxCell>
                <mxCell id="jegcrzORA-ZSloYt-0iM-13" value="&lt;font face=&quot;Noto Serif CJK SC Medium&quot; style=&quot;font-size: 18px;&quot;&gt;ROS TF2&lt;/font&gt;" style="rounded=1;whiteSpace=wrap;html=1;strokeWidth=3;fillColor=#dae8fc;strokeColor=#6c8ebf;" parent="1" vertex="1">
                    <mxGeometry x="430" y="535" width="120" height="60" as="geometry"/>
                </mxCell>
                <mxCell id="jegcrzORA-ZSloYt-0iM-35" style="edgeStyle=orthogonalEdgeStyle;rounded=1;orthogonalLoop=1;jettySize=auto;html=1;entryX=0;entryY=0.5;entryDx=0;entryDy=0;startArrow=blockThin;startFill=1;strokeWidth=3;curved=0;endArrow=blockThin;endFill=1;" parent="1" source="jegcrzORA-ZSloYt-0iM-15" target="jegcrzORA-ZSloYt-0iM-13" edge="1">
                    <mxGeometry relative="1" as="geometry">
                        <Array as="points">
                            <mxPoint x="390" y="605"/>
                            <mxPoint x="390" y="565"/>
                        </Array>
                    </mxGeometry>
                </mxCell>
                <mxCell id="jegcrzORA-ZSloYt-0iM-15" value="&lt;div&gt;&lt;font face=&quot;Noto Serif CJK SC Medium&quot; style=&quot;font-size: 18px;&quot;&gt;标定模块，发布到 TF2&lt;/font&gt;&lt;/div&gt;" style="rounded=1;whiteSpace=wrap;html=1;strokeWidth=3;fillColor=#dae8fc;strokeColor=#6c8ebf;" parent="1" vertex="1">
                    <mxGeometry x="165" y="560" width="200" height="90" as="geometry"/>
                </mxCell>
                <mxCell id="jegcrzORA-ZSloYt-0iM-30" style="edgeStyle=orthogonalEdgeStyle;rounded=1;orthogonalLoop=1;jettySize=auto;html=1;exitX=0.75;exitY=0;exitDx=0;exitDy=0;entryX=0.5;entryY=1;entryDx=0;entryDy=0;startArrow=blockThin;startFill=1;strokeWidth=3;curved=0;endArrow=blockThin;endFill=1;" parent="1" source="jegcrzORA-ZSloYt-0iM-17" target="jegcrzORA-ZSloYt-0iM-31" edge="1">
                    <mxGeometry relative="1" as="geometry">
                        <mxPoint x="789.9999999999998" y="365" as="targetPoint"/>
                    </mxGeometry>
                </mxCell>
                <mxCell id="jegcrzORA-ZSloYt-0iM-17" value="&lt;div&gt;&lt;font face=&quot;Noto Serif CJK SC Medium&quot; style=&quot;font-size: 18px;&quot;&gt;&lt;span style=&quot;color: rgb(63, 63, 63); background-color: transparent;&quot;&gt;基线方法 / 本文设计的方法&lt;/span&gt;&lt;/font&gt;&lt;/div&gt;&lt;div&gt;&lt;font face=&quot;Noto Serif CJK SC Medium&quot; size=&quot;3&quot;&gt;规划执行轨迹模块&lt;/font&gt;&lt;/div&gt;" style="rounded=1;whiteSpace=wrap;html=1;strokeWidth=3;fillColor=#fff2cc;strokeColor=#d6b656;" parent="1" vertex="1">
                    <mxGeometry x="600" y="385" width="240" height="100" as="geometry"/>
                </mxCell>
                <mxCell id="jegcrzORA-ZSloYt-0iM-23" style="edgeStyle=orthogonalEdgeStyle;rounded=1;orthogonalLoop=1;jettySize=auto;html=1;entryX=0.5;entryY=0;entryDx=0;entryDy=0;strokeWidth=3;curved=0;endArrow=openThin;endFill=0;" parent="1" source="jegcrzORA-ZSloYt-0iM-21" target="jegcrzORA-ZSloYt-0iM-22" edge="1">
                    <mxGeometry relative="1" as="geometry"/>
                </mxCell>
                <mxCell id="jegcrzORA-ZSloYt-0iM-51" style="edgeStyle=orthogonalEdgeStyle;rounded=0;orthogonalLoop=1;jettySize=auto;html=1;entryX=0.5;entryY=0;entryDx=0;entryDy=0;startArrow=blockThin;startFill=1;strokeWidth=3;endArrow=blockThin;endFill=1;" parent="1" source="jegcrzORA-ZSloYt-0iM-22" target="jegcrzORA-ZSloYt-0iM-17" edge="1">
                    <mxGeometry relative="1" as="geometry"/>
                </mxCell>
                <mxCell id="jegcrzORA-ZSloYt-0iM-54" style="edgeStyle=orthogonalEdgeStyle;rounded=1;orthogonalLoop=1;jettySize=auto;html=1;entryX=0;entryY=0.75;entryDx=0;entryDy=0;exitX=0;exitY=0.5;exitDx=0;exitDy=0;startArrow=blockThin;startFill=1;endArrow=none;endFill=0;strokeWidth=3;curved=0;" parent="1" source="jegcrzORA-ZSloYt-0iM-22" target="jegcrzORA-ZSloYt-0iM-48" edge="1">
                    <mxGeometry relative="1" as="geometry">
                        <Array as="points">
                            <mxPoint x="570" y="290"/>
                            <mxPoint x="570" y="771"/>
                        </Array>
                    </mxGeometry>
                </mxCell>
                <mxCell id="jegcrzORA-ZSloYt-0iM-55" value="&lt;font face=&quot;Noto Serif CJK SC Medium&quot; style=&quot;font-size: 14px;&quot;&gt;初始化数据：提供碰撞模型&lt;/font&gt;" style="edgeLabel;html=1;align=center;verticalAlign=middle;resizable=0;points=[];" parent="jegcrzORA-ZSloYt-0iM-54" vertex="1" connectable="0">
                    <mxGeometry x="0.5402" relative="1" as="geometry">
                        <mxPoint as="offset"/>
                    </mxGeometry>
                </mxCell>
                <mxCell id="jegcrzORA-ZSloYt-0iM-22" value="&lt;font face=&quot;Noto Serif CJK SC Medium&quot; style=&quot;font-size: 18px;&quot;&gt;基线方法 / 本文设计的方法&lt;/font&gt;&lt;div&gt;&lt;font face=&quot;Noto Serif CJK SC Medium&quot; size=&quot;3&quot;&gt;逆解模块&lt;/font&gt;&lt;/div&gt;" style="rounded=1;whiteSpace=wrap;html=1;strokeWidth=3;fillColor=#fff2cc;strokeColor=#d6b656;" parent="1" vertex="1">
                    <mxGeometry x="600" y="250" width="240" height="80" as="geometry"/>
                </mxCell>
                <mxCell id="jegcrzORA-ZSloYt-0iM-40" style="edgeStyle=orthogonalEdgeStyle;rounded=1;orthogonalLoop=1;jettySize=auto;html=1;strokeWidth=3;curved=0;endArrow=openThin;endFill=0;" parent="1" source="jegcrzORA-ZSloYt-0iM-36" target="jegcrzORA-ZSloYt-0iM-13" edge="1">
                    <mxGeometry relative="1" as="geometry"/>
                </mxCell>
                <mxCell id="jegcrzORA-ZSloYt-0iM-36" value="&lt;font face=&quot;Noto Serif CJK SC Medium&quot; style=&quot;font-size: 18px;&quot;&gt;手部模型检测模块&lt;/font&gt;" style="rounded=1;whiteSpace=wrap;html=1;strokeWidth=3;fillColor=#d5e8d4;strokeColor=#82b366;" parent="1" vertex="1">
                    <mxGeometry x="170" y="770" width="210" height="60" as="geometry"/>
                </mxCell>
                <mxCell id="jegcrzORA-ZSloYt-0iM-38" value="&lt;font face=&quot;Noto Serif CJK SC Black&quot; style=&quot;font-size: 18px;&quot;&gt;末端坐标捕获方案 1&lt;/font&gt;" style="swimlane;whiteSpace=wrap;html=1;rounded=1;strokeWidth=3;fillColor=#f5f5f5;strokeColor=#666666;fontColor=#333333;" parent="1" vertex="1">
                    <mxGeometry x="125" y="120" width="280" height="570" as="geometry"/>
                </mxCell>
                <mxCell id="jegcrzORA-ZSloYt-0iM-39" value="&lt;font face=&quot;Noto Serif CJK SC Black&quot; style=&quot;font-size: 18px;&quot;&gt;末端坐标捕获方案 2&lt;/font&gt;" style="swimlane;whiteSpace=wrap;html=1;rounded=1;strokeWidth=3;fillColor=#f5f5f5;strokeColor=#666666;fontColor=#333333;" parent="1" vertex="1">
                    <mxGeometry x="125" y="710" width="285" height="160" as="geometry"/>
                </mxCell>
                <mxCell id="jegcrzORA-ZSloYt-0iM-43" style="edgeStyle=orthogonalEdgeStyle;rounded=0;orthogonalLoop=1;jettySize=auto;html=1;entryX=0.5;entryY=1;entryDx=0;entryDy=0;startArrow=blockThin;startFill=1;strokeWidth=3;endArrow=blockThin;endFill=1;" parent="1" source="jegcrzORA-ZSloYt-0iM-41" target="jegcrzORA-ZSloYt-0iM-31" edge="1">
                    <mxGeometry relative="1" as="geometry"/>
                </mxCell>
                <mxCell id="jegcrzORA-ZSloYt-0iM-46" style="edgeStyle=orthogonalEdgeStyle;rounded=1;orthogonalLoop=1;jettySize=auto;html=1;entryX=1;entryY=0.5;entryDx=0;entryDy=0;strokeWidth=3;curved=0;endArrow=openThin;endFill=0;" parent="1" source="jegcrzORA-ZSloYt-0iM-41" target="jegcrzORA-ZSloYt-0iM-17" edge="1">
                    <mxGeometry relative="1" as="geometry"/>
                </mxCell>
                <mxCell id="jegcrzORA-ZSloYt-0iM-41" value="&lt;font face=&quot;Noto Serif CJK SC Medium&quot; style=&quot;font-size: 18px;&quot;&gt;Joint Broadcaster（可选）&lt;/font&gt;&lt;div&gt;&lt;font face=&quot;Noto Serif CJK SC Medium&quot; style=&quot;font-size: 14px;&quot;&gt;发布关节信息和路点缓存区大小信息&lt;/font&gt;&lt;/div&gt;" style="rounded=1;whiteSpace=wrap;html=1;strokeWidth=3;fillColor=#dae8fc;strokeColor=#6c8ebf;" parent="1" vertex="1">
                    <mxGeometry x="920" y="390" width="230" height="90" as="geometry"/>
                </mxCell>
                <mxCell id="jegcrzORA-ZSloYt-0iM-47" value="&lt;font face=&quot;Noto Serif CJK SC Black&quot; style=&quot;font-size: 18px;&quot;&gt;UR10 机械臂 / 多臂&lt;/font&gt;" style="swimlane;whiteSpace=wrap;html=1;rounded=1;strokeWidth=3;fillColor=#f5f5f5;strokeColor=#666666;fontColor=#333333;" parent="1" vertex="1">
                    <mxGeometry x="890" y="165" width="300" height="360" as="geometry"/>
                </mxCell>
                <mxCell id="jegcrzORA-ZSloYt-0iM-31" value="&lt;font face=&quot;Noto Serif CJK SC Medium&quot; style=&quot;font-size: 18px;&quot;&gt;机械臂主机&lt;/font&gt;" style="rounded=1;whiteSpace=wrap;html=1;strokeWidth=3;fillColor=#d5e8d4;strokeColor=#82b366;" parent="jegcrzORA-ZSloYt-0iM-47" vertex="1">
                    <mxGeometry x="47.5" y="120" width="195" height="60" as="geometry"/>
                </mxCell>
                <mxCell id="jegcrzORA-ZSloYt-0iM-21" value="&lt;font face=&quot;Noto Serif CJK SC Medium&quot; style=&quot;font-size: 14px;&quot;&gt;ROS &lt;span style=&quot;background-color: transparent;&quot;&gt;提供碰撞模型&lt;/span&gt;&lt;/font&gt;" style="rounded=1;whiteSpace=wrap;html=1;strokeWidth=3;fillColor=#dae8fc;strokeColor=#6c8ebf;" parent="jegcrzORA-ZSloYt-0iM-47" vertex="1">
                    <mxGeometry x="90" y="35" width="120" height="60" as="geometry"/>
                </mxCell>
                <mxCell id="jegcrzORA-ZSloYt-0iM-49" style="edgeStyle=orthogonalEdgeStyle;rounded=1;orthogonalLoop=1;jettySize=auto;html=1;entryX=0.5;entryY=1;entryDx=0;entryDy=0;startArrow=blockThin;startFill=1;strokeWidth=3;curved=0;endArrow=openThin;endFill=0;" parent="1" source="jegcrzORA-ZSloYt-0iM-48" target="jegcrzORA-ZSloYt-0iM-17" edge="1">
                    <mxGeometry relative="1" as="geometry"/>
                </mxCell>
                <mxCell id="jegcrzORA-ZSloYt-0iM-50" value="&lt;font face=&quot;Noto Serif CJK SC Medium&quot; style=&quot;font-size: 14px;&quot;&gt;控制和状态数据&lt;/font&gt;" style="edgeLabel;html=1;align=center;verticalAlign=middle;resizable=0;points=[];" parent="jegcrzORA-ZSloYt-0iM-49" vertex="1" connectable="0">
                    <mxGeometry x="0.4" y="2" relative="1" as="geometry">
                        <mxPoint as="offset"/>
                    </mxGeometry>
                </mxCell>
                <mxCell id="jegcrzORA-ZSloYt-0iM-48" value="&lt;font style=&quot;font-size: 18px;&quot; face=&quot;Noto Serif CJK SC Black&quot;&gt;其他类型机械臂（任意轴）&lt;/font&gt;" style="swimlane;whiteSpace=wrap;html=1;startSize=23;rounded=1;strokeWidth=3;fillColor=#f5f5f5;fontColor=#333333;strokeColor=#666666;" parent="1" vertex="1">
                    <mxGeometry x="890" y="580" width="300" height="255" as="geometry"/>
                </mxCell>
                <mxCell id="2" value="&lt;span style=&quot;font-size: 18px;&quot;&gt;&lt;font face=&quot;Noto Serif CJK SC Medium&quot;&gt;适配中间层&lt;/font&gt;&lt;/span&gt;" style="rounded=1;whiteSpace=wrap;html=1;strokeWidth=3;fillColor=#dae8fc;strokeColor=#6c8ebf;" parent="jegcrzORA-ZSloYt-0iM-48" vertex="1">
                    <mxGeometry x="50" y="97.5" width="195" height="60" as="geometry"/>
                </mxCell>
            </root>
        </mxGraphModel>
    </diagram>
</mxfile>